<?xml version="1.0" encoding="utf-8"?>
<!-- Generator: Adobe Illustrator 27.2.0, SVG Export Plug-In . SVG Version: 6.00 Build 0)  -->
<svg version="1.1" id="Ebene_1" xmlns="http://www.w3.org/2000/svg" xmlns:xlink="http://www.w3.org/1999/xlink" x="0px" y="0px"
	 viewBox="0 0 448.9 317.6" style="enable-background:new 0 0 448.9 317.6;" xml:space="preserve">
<style type="text/css">
	.st0{fill:#CB111D;}
	.st1{fill:#1A2E46;}
	.st2{fill:#6F6F6F;}
</style>
<image style="display:none;overflow:visible;" width="1000" height="1000" xlink:href="../../../Medien/Logos/adlatus.gif"  transform="matrix(0.5 0 0 0.5 -10.4936 -78.0253)">
</image>
<polygon class="st0" points="0,228.8 58.6,228.8 88,316.7 "/>
<polygon class="st0" points="186.1,228.8 127.4,228.8 98,316.7 "/>
<polygon class="st0" points="63.9,228.8 122.4,228.8 93.2,317.6 "/>
<polygon class="st0" points="0,224.4 27.7,193.4 55.2,224.4 "/>
<polygon class="st0" points="65.6,224.4 93.2,193.4 120.8,224.4 "/>
<polygon class="st0" points="130.8,224.4 158.5,193.4 186.1,224.4 "/>
<polygon class="st0" points="32.8,192.3 60.5,223.3 88,192.3 "/>
<polygon class="st0" points="98,192.3 125.7,223.3 153.2,192.3 "/>
<path class="st1" d="M144,135.4V55.1l-29.9-20l-13.3,8.7V20.4L71.3,0L41.3,20.7v128.7l-8.5,5.6v33.4h45.7V80.5l22,15.5v69.8l4.9,4.9
	l-4.9,5.1v12.7h13.3V43.2L136.4,59v129.4h16.8v-43.9L144,135.4z M78.6,71.7L50.1,90.9l21.2-19.1V8.9L93,24.5v24.6L84.3,55v16.7
	l22.1,19.2L78.6,71.7z"/>
<g>
	<path class="st0" d="M203.2,157.8h-5.9l-4.5-13h-20.2l-4.5,13h-5.6l16.5-45.9h7.8L203.2,157.8z M191,140.1l-8.4-23.8l-8.4,23.8H191
		z"/>
	<path class="st0" d="M247.9,134.9c0,3.9-0.8,7.6-2.5,10.9c-1.8,3.5-4.2,6.3-7.4,8.3c-3.9,2.4-9.6,3.7-17.1,3.7h-11.3v-45.9h11.2
		c7.7,0,13.4,1.2,17.3,3.6C244.6,119.6,247.9,126.1,247.9,134.9z M242,134.8c0-7.3-2.5-12.4-7.6-15.3c-3.3-1.9-7.7-2.8-13.2-2.8h-6
		V153h6c6,0,10.7-1,13.9-3.1C239.7,146.9,242,141.8,242,134.8z"/>
	<path class="st0" d="M285.5,157.8H257v-45.9h5.6v40.9h22.9V157.8z"/>
	<path class="st0" d="M326.7,157.8h-5.9l-4.5-13h-20.2l-4.5,13h-5.6l16.5-45.9h7.8L326.7,157.8z M314.6,140.1l-8.4-23.8l-8.4,23.8
		H314.6z"/>
	<path class="st0" d="M365.4,116.8H349v40.9h-5.6v-40.9H327v-5h38.4V116.8z"/>
	<path class="st0" d="M405,139.4c0,12.9-5.8,19.3-17.4,19.3c-11.6,0-17.3-6.4-17.3-19.3v-27.5h5.6v27.8c0,4.5,0.8,7.9,2.4,10.2
		c1.9,2.7,5,4,9.4,4c7.9,0,11.8-4.7,11.8-14.1v-28h5.6V139.4z"/>
	<path class="st0" d="M448.9,144.8c0,4.5-2,8.1-5.9,10.6c-3.4,2.2-7.5,3.2-12.2,3.2c-5.7,0-11.3-1.2-16.7-3.6v-7.3h0.1
		c4.9,4.1,10.4,6.1,16.7,6.1c3.2,0,5.9-0.6,8.1-1.7c2.8-1.4,4.2-3.6,4.2-6.5c0-2.1-0.5-3.7-1.6-4.8c-1.1-1.1-2.6-1.9-4.6-2.3
		c-2-0.4-5.6-1-10.7-2.1c-7.9-1.6-11.8-5.8-11.8-12.5c0-4.2,1.8-7.5,5.5-9.9c3.2-2.1,7-3.1,11.5-3.1c5.7,0,10.9,1,15.8,3.1v6.9H447
		c-4.1-3.5-9.3-5.2-15.7-5.2c-2.8,0-5.3,0.6-7.3,1.7c-2.5,1.4-3.8,3.3-3.8,5.9c0,3.9,2.3,6.4,6.9,7.3c2.2,0.4,6.1,1.1,11.8,2.3
		C445.5,134.7,448.9,138.6,448.9,144.8z"/>
</g>
<g>
	<path class="st2" d="M177.7,178.2c0,1.5-0.3,3-1,4.3c-0.7,1.4-1.7,2.5-2.9,3.3c-1.5,1-3.8,1.4-6.7,1.4h-4.5v-18h4.4
		c3,0,5.3,0.5,6.8,1.4C176.4,172.2,177.7,174.8,177.7,178.2z M175.4,178.2c0-2.9-1-4.9-3-6c-1.3-0.7-3-1.1-5.2-1.1h-2.3v14.3h2.3
		c2.4,0,4.2-0.4,5.5-1.2C174.5,182.9,175.4,181,175.4,178.2z"/>
	<path class="st2" d="M184.4,172.7H182v-2.2h2.3V172.7z M184.2,187.2h-2.1v-12.4h2.1V187.2z"/>
	<path class="st2" d="M199.8,181.2h-9.1c0,1.4,0.4,2.5,1.2,3.3c0.8,0.8,1.9,1.2,3.2,1.2c0.7,0,1.5-0.1,2.3-0.4
		c0.9-0.3,1.6-0.7,2.1-1.1h0.1v2.3c-1.6,0.7-3.1,1-4.5,1c-2.1,0-3.7-0.6-4.8-1.7c-1.2-1.1-1.7-2.7-1.7-4.7c0-1.9,0.5-3.5,1.5-4.7
		c1.1-1.3,2.6-1.9,4.5-1.9c1.7,0,3,0.5,3.9,1.5c0.9,1,1.3,2.3,1.3,4.1V181.2z M197.8,179.6c0-2.3-1.1-3.5-3.3-3.5
		c-1.1,0-1.9,0.3-2.6,0.9s-1.1,1.5-1.2,2.5H197.8z"/>
	<path class="st2" d="M214.5,187.2h-2.1v-7.1c0-1.3-0.2-2.3-0.5-2.8c-0.4-0.6-1.1-0.9-2.2-0.9c-1.1,0-2.3,0.5-3.6,1.5v9.3h-2.1
		v-12.4h2.1v1.4c1.4-1.1,2.8-1.7,4.2-1.7c2.7,0,4.1,1.6,4.1,4.7V187.2z"/>
	<path class="st2" d="M228.4,183.6c0,1.3-0.6,2.3-1.7,3c-1,0.6-2.1,0.9-3.5,0.9c-1.6,0-3.1-0.3-4.4-1v-2.3h0.1
		c1.4,1.1,2.9,1.6,4.5,1.6c2,0,2.9-0.6,2.9-1.8c0-0.6-0.2-1-0.6-1.3c-0.3-0.2-0.8-0.4-1.4-0.5c-0.5-0.1-1.3-0.3-2.5-0.5
		c-2-0.5-3-1.6-3-3.3c0-1,0.4-1.9,1.3-2.6c0.9-0.8,2.1-1.1,3.7-1.1c1.5,0,2.9,0.3,4.1,0.9v2.2h-0.1c-1.3-0.9-2.7-1.4-4.2-1.4
		c-1.8,0-2.7,0.6-2.7,1.7c0,0.9,0.7,1.5,2,1.8c0.5,0.1,1.3,0.3,2.5,0.5C227.4,180.8,228.4,181.9,228.4,183.6z"/>
	<path class="st2" d="M239,187.1c-0.9,0.2-1.7,0.3-2.5,0.3c-2.6,0-3.9-1.4-3.9-4.3v-6.6h-1.4v-1.8h1.4v-3.6h2.1v3.6h4.3v1.8h-4.3
		v5.6c0,1.3,0.1,2.1,0.3,2.6c0.3,0.6,1,0.9,2,0.9c0.6,0,1.2-0.1,1.9-0.4h0.1V187.1z"/>
	<path class="st2" d="M244.7,187.2h-2.1v-18.7h2.1V187.2z"/>
	<path class="st2" d="M260.3,181.2h-9.1c0,1.4,0.4,2.5,1.2,3.3c0.8,0.8,1.9,1.2,3.2,1.2c0.7,0,1.5-0.1,2.3-0.4
		c0.9-0.3,1.6-0.7,2.1-1.1h0.1v2.3c-1.6,0.7-3.1,1-4.5,1c-2.1,0-3.7-0.6-4.8-1.7c-1.2-1.1-1.7-2.7-1.7-4.7c0-1.9,0.5-3.5,1.5-4.7
		c1.1-1.3,2.6-1.9,4.5-1.9c1.7,0,3,0.5,3.9,1.5c0.9,1,1.3,2.3,1.3,4.1V181.2z M258.3,179.6c0-2.3-1.1-3.5-3.3-3.5
		c-1.1,0-1.9,0.3-2.6,0.9s-1.1,1.5-1.2,2.5H258.3z"/>
	<path class="st2" d="M266.8,172.7h-2.3v-2.2h2.3V172.7z M266.7,187.2h-2.1v-12.4h2.1V187.2z"/>
	<path class="st2" d="M280.7,183.6c0,1.3-0.6,2.3-1.7,3c-1,0.6-2.1,0.9-3.5,0.9c-1.6,0-3.1-0.3-4.4-1v-2.3h0.1
		c1.4,1.1,2.9,1.6,4.5,1.6c2,0,2.9-0.6,2.9-1.8c0-0.6-0.2-1-0.6-1.3c-0.3-0.2-0.8-0.4-1.4-0.5c-0.5-0.1-1.3-0.3-2.5-0.5
		c-2-0.5-3-1.6-3-3.3c0-1,0.4-1.9,1.3-2.6c0.9-0.8,2.1-1.1,3.7-1.1c1.5,0,2.9,0.3,4.1,0.9v2.2h-0.1c-1.3-0.9-2.7-1.4-4.2-1.4
		c-1.8,0-2.7,0.6-2.7,1.7c0,0.9,0.7,1.5,2,1.8c0.5,0.1,1.3,0.3,2.5,0.5C279.7,180.8,280.7,181.9,280.7,183.6z"/>
	<path class="st2" d="M291.3,187.1c-0.9,0.2-1.7,0.3-2.5,0.3c-2.6,0-3.9-1.4-3.9-4.3v-6.6h-1.4v-1.8h1.4v-3.6h2.1v3.6h4.3v1.8H287
		v5.6c0,1.3,0.1,2.1,0.3,2.6c0.3,0.6,1,0.9,2,0.9c0.6,0,1.2-0.1,1.9-0.4h0.1V187.1z"/>
	<path class="st2" d="M305.2,187.2h-2.1v-1.4c-1.5,1.1-2.8,1.7-4.1,1.7c-2.8,0-4.1-1.6-4.1-4.7v-8h2.1v7.1c0,1.3,0.2,2.3,0.5,2.8
		c0.4,0.6,1.1,0.9,2.2,0.9c1.1,0,2.3-0.5,3.6-1.5v-9.3h2.1V187.2z"/>
	<path class="st2" d="M320.7,187.2h-2.1v-7.1c0-1.3-0.2-2.3-0.5-2.8c-0.4-0.6-1.1-0.9-2.2-0.9c-1.1,0-2.3,0.5-3.6,1.5v9.3h-2.1
		v-12.4h2.1v1.4c1.4-1.1,2.8-1.7,4.2-1.7c2.7,0,4.1,1.6,4.1,4.7V187.2z"/>
	<path class="st2" d="M335.9,185.8c0,4.1-1.9,6.1-5.8,6.1c-1.3,0-2.5-0.2-3.8-0.5v-2.1h0.1c1.3,0.5,2.6,0.8,3.8,0.8
		c2.4,0,3.6-1.1,3.6-3.4v-1.1c-1.2,1-2.6,1.5-4,1.5c-1.7,0-2.9-0.6-3.8-1.9c-0.7-1.1-1.1-2.5-1.1-4.2c0-1.8,0.5-3.2,1.4-4.4
		c1-1.3,2.4-2,4.1-2c1.2,0,2.3,0.3,3.3,0.9l0.1-0.5h2V185.8z M333.8,183.8V177c-1-0.5-2-0.7-3-0.7c-1.3,0-2.2,0.5-2.9,1.4
		c-0.5,0.8-0.8,1.8-0.8,3.2c0,2.8,1.1,4.2,3.2,4.2C331.5,185.1,332.7,184.7,333.8,183.8z"/>
	<path class="st2" d="M349.9,183.6c0,1.3-0.6,2.3-1.7,3c-1,0.6-2.1,0.9-3.5,0.9c-1.6,0-3.1-0.3-4.4-1v-2.3h0.1
		c1.4,1.1,2.9,1.6,4.5,1.6c2,0,2.9-0.6,2.9-1.8c0-0.6-0.2-1-0.6-1.3c-0.3-0.2-0.8-0.4-1.4-0.5c-0.5-0.1-1.3-0.3-2.5-0.5
		c-2-0.5-3-1.6-3-3.3c0-1,0.4-1.9,1.3-2.6c0.9-0.8,2.1-1.1,3.7-1.1c1.5,0,2.9,0.3,4.1,0.9v2.2h-0.1c-1.3-0.9-2.7-1.4-4.2-1.4
		c-1.8,0-2.7,0.6-2.7,1.7c0,0.9,0.7,1.5,2,1.8c0.5,0.1,1.3,0.3,2.5,0.5C348.9,180.8,349.9,181.9,349.9,183.6z"/>
	<path class="st2" d="M378.7,185.9c-2.4,1.1-4.6,1.7-6.5,1.7c-1.4,0-2.7-0.2-3.8-0.6c-2.3-0.8-4-2.3-4.8-4.7
		c-0.4-1.2-0.7-2.6-0.7-4.1c0-2.9,0.8-5.2,2.5-6.8c1.7-1.7,4-2.5,6.9-2.5c2.1,0,4.3,0.5,6.5,1.6v2.7h-0.1c-0.9-0.7-1.7-1.2-2.5-1.6
		c-1.3-0.6-2.7-0.9-4.3-0.9c-2.1,0-3.8,0.7-5,2.1c-1.1,1.3-1.7,3.1-1.7,5.3c0,2.3,0.6,4.1,1.7,5.4c1.2,1.4,3,2.1,5.2,2.1
		c1.6,0,3.1-0.3,4.4-0.9v-4.6h-4.8v-1.9h7V185.9z"/>
	<path class="st2" d="M401.6,187.2h-2.1v-7.1c0-1.3-0.1-2.3-0.4-2.7c-0.3-0.6-1-1-2.1-1c-1,0-2.2,0.5-3.5,1.6
		c0.1,0.4,0.1,0.8,0.1,1.3v7.9h-2.1v-7.1c0-1.4-0.1-2.3-0.4-2.7c-0.3-0.6-1-1-2.1-1c-1,0-2.1,0.5-3.4,1.5v9.3h-2.1v-12.4h2.1v1.4
		c1.4-1.1,2.7-1.7,4-1.7c1.7,0,2.9,0.7,3.5,2c1.6-1.3,3.1-2,4.5-2c2.7,0,4,1.6,4,4.7V187.2z"/>
	<path class="st2" d="M417.6,180.9c0,1.8-0.4,3.3-1.3,4.6c-1,1.4-2.4,2.1-4.1,2.1c-1.1,0-2.3-0.3-3.4-0.9l-0.1,0.6h-1.9v-18.7h2.1
		v7.7c1.3-1.1,2.7-1.7,4.1-1.7c1.7,0,2.9,0.7,3.7,2.1C417.3,177.7,417.6,179.1,417.6,180.9z M415.5,181c0-3-1-4.5-3.1-4.5
		c-1.2,0-2.4,0.5-3.6,1.4v7.1c1.1,0.5,2,0.7,3,0.7C414.2,185.7,415.5,184.1,415.5,181z"/>
	<path class="st2" d="M435.7,187.2h-2.2v-8.9h-9.2v8.9h-2.2v-18h2.2v7.2h9.2v-7.2h2.2V187.2z"/>
</g>
</svg>
