<?xml version="1.0" encoding="utf-8"?>
<!-- Generator: Adobe Illustrator 27.2.0, SVG Export Plug-In . SVG Version: 6.00 Build 0)  -->
<svg version="1.1" id="Ebene_1" xmlns="http://www.w3.org/2000/svg" xmlns:xlink="http://www.w3.org/1999/xlink" x="0px" y="0px"
	 viewBox="0 0 186.1 317.6" style="enable-background:new 0 0 186.1 317.6;" xml:space="preserve">
<style type="text/css">
	.st0{fill:#CB111D;}
	.st1{fill:#1A2E46;}
</style>
<image style="display:none;overflow:visible;" width="1000" height="1000" xlink:href="../../../../Medien/Logos/adlatus.gif"  transform="matrix(0.5 0 0 0.5 -10.4936 -78.0253)">
</image>
<polygon class="st0" points="0,228.8 58.6,228.8 88,316.7 "/>
<polygon class="st0" points="186.1,228.8 127.4,228.8 98,316.7 "/>
<polygon class="st0" points="63.9,228.8 122.4,228.8 93.2,317.6 "/>
<polygon class="st0" points="0,224.4 27.7,193.4 55.2,224.4 "/>
<polygon class="st0" points="65.6,224.4 93.2,193.4 120.8,224.4 "/>
<polygon class="st0" points="130.8,224.4 158.5,193.4 186.1,224.4 "/>
<polygon class="st0" points="32.8,192.3 60.5,223.3 88,192.3 "/>
<polygon class="st0" points="98,192.3 125.7,223.3 153.2,192.3 "/>
<path class="st1" d="M144,135.4V55.1l-29.9-20l-13.3,8.7V20.4L71.3,0L41.3,20.7v128.7l-8.5,5.6v33.4h45.7V80.5l22,15.5v69.8l4.9,4.9
	l-4.9,5.1v12.7h13.3V43.2L136.4,59v129.4h16.8v-43.9L144,135.4z M78.6,71.7L50.1,90.9l21.2-19.1V8.9L93,24.5v24.6L84.3,55v16.7
	l22.1,19.2L78.6,71.7z"/>
</svg>
